<svg width="234" height="200" viewBox="0 0 234 200" fill="none" xmlns="http://www.w3.org/2000/svg">
<circle cx="100" cy="100" r="100" fill="#D100D1"/>
<path d="M30.5703 101.375C30.5703 99.9297 30.668 98.7383 30.8633 97.8008L65.4922 72.957C66.5859 73.3867 67.875 74.4805 69.3594 76.2383C70.8828 77.957 72.25 79.8516 73.4609 81.9219C74.7109 83.9922 75.5117 85.7109 75.8633 87.0781L52.6602 107.469L77.0352 125.164C76.4883 127.43 75.2969 129.832 73.4609 132.371C71.6641 134.91 69.9062 136.688 68.1875 137.703L34.1445 118.191C33.168 117.098 32.3281 114.793 31.625 111.277C30.9219 107.762 30.5703 104.461 30.5703 101.375ZM102.758 43.0742C103.812 42.7227 105.258 42.5469 107.094 42.5469C109.828 42.5469 112.816 42.918 116.059 43.6602C119.301 44.3633 121.762 45.2422 123.441 46.2969L99.7109 143.504H98.6562C95.8438 143.504 93.2656 143.152 90.9219 142.449C88.5781 141.746 86.3516 140.672 84.2422 139.227L102.758 43.0742ZM172.836 108.113C172.836 109.559 172.738 110.75 172.543 111.688L137.914 136.531C136.82 136.102 135.512 135.027 133.988 133.309C132.504 131.551 131.137 129.637 129.887 127.566C128.676 125.496 127.895 123.777 127.543 122.41L150.746 102.02L126.371 84.3242C126.918 82.0586 128.09 79.6562 129.887 77.1172C131.723 74.5781 133.5 72.8008 135.219 71.7852L169.262 91.2969C170.238 92.3906 171.078 94.6953 171.781 98.2109C172.484 101.727 172.836 105.027 172.836 108.113Z" fill="white"/>
</svg>
