<svg width="228" height="218" viewBox="0 0 228 218" fill="none" xmlns="http://www.w3.org/2000/svg">
<path d="M0 46C0 30.536 12.536 18 28 18H171C186.464 18 199 30.536 199 46V190C199 205.464 186.464 218 171 218H28C12.536 218 0 205.464 0 190V46Z" fill="#390099"/>
<path d="M32.8 184V119.3L26.8 115.6V104.9L48.3 99H65V184H32.8ZM47.3 89.8L30.9 73.3V69.8L47.3 53.4H51.1L68.2 69.8V73.3L51.1 89.8H47.3ZM109.496 184H77.6961V76.2L72.7961 66.8H109.596L127.996 104.8L145.596 142.7L140.696 98.2V66.8H172.596V184H142.096L118.296 137.7L103.596 108.7L109.496 147.1V184Z" fill="white"/>
<rect x="30" y="61" width="38" height="31" fill="#390099"/>
<rect x="19" y="84.5183" width="87" height="83" transform="rotate(-45 19 84.5183)" fill="#390099"/>
<path d="M78.6401 139L132 71.6243L88.0883 118.887L78.6401 139Z" fill="url(#paint0_linear_220_41)"/>
<path d="M88.0874 118.891L131.999 71.6212H110.77L88.0874 118.891Z" fill="url(#paint1_linear_220_41)"/>
<path d="M99.4365 71.5942L95.3009 58.4893L110.773 71.6192L99.4365 71.5942Z" fill="url(#paint2_linear_220_41)"/>
<path d="M78.4973 71.5934L95.2999 58.488L99.4356 71.5934H78.4973Z" fill="url(#paint3_linear_220_41)"/>
<path d="M88.0934 118.883L99.4386 71.5945L110.771 71.6191L88.0934 118.883Z" fill="url(#paint4_linear_220_41)"/>
<path d="M78.5986 53.0005L95.302 58.4882L78.4984 71.5935L61.7004 58.4808L78.5986 53.0005Z" fill="url(#paint5_linear_220_41)"/>
<path d="M99.4412 71.5923H78.502L88.0922 118.883L99.4412 71.5923Z" fill="url(#paint6_linear_220_41)"/>
<path d="M95.3019 58.4879L78.6016 53L110.871 53.01L95.3019 58.4879Z" fill="url(#paint7_linear_220_41)"/>
<path d="M122.283 58.4394L110.774 71.6216H131.995L122.283 58.4394Z" fill="url(#paint8_linear_220_41)"/>
<path d="M95.3002 58.4876L110.775 71.6221L122.286 58.4484L110.871 53.0111L95.3002 58.4876Z" fill="url(#paint9_linear_220_41)"/>
<path d="M78.6401 138.999L24.9999 71.6177L68.9114 118.88L78.6401 138.999Z" fill="url(#paint10_linear_220_41)"/>
<path d="M68.9115 118.884L25.0003 71.6141H46.2288L68.9115 118.884Z" fill="url(#paint11_linear_220_41)"/>
<path d="M57.5619 71.5875L61.6975 58.4827L46.2258 71.6125L57.5619 71.5875Z" fill="url(#paint12_linear_220_41)"/>
<path d="M78.502 71.5862L61.6994 58.4809L57.5637 71.5862H78.502Z" fill="url(#paint13_linear_220_41)"/>
<path d="M68.9062 118.876L57.561 71.5878L46.229 71.6124L68.9062 118.876Z" fill="url(#paint14_linear_220_41)"/>
<path d="M57.5581 71.586H78.4973L68.9071 118.877L57.5581 71.586Z" fill="url(#paint15_linear_220_41)"/>
<path d="M61.6972 58.4811L78.6001 53.0031H46.1286L61.6972 58.4811Z" fill="url(#paint16_linear_220_41)"/>
<path d="M34.7159 58.4326L46.2252 71.6149H25.0045L34.7159 58.4326Z" fill="url(#paint17_linear_220_41)"/>
<path d="M61.6993 58.4805L46.224 71.615L34.7134 58.4413L46.1288 53.004L61.6993 58.4805Z" fill="url(#paint18_linear_220_41)"/>
<path d="M88.0898 118.877L78.4997 71.5887L68.9069 118.87L78.6399 138.998L88.0898 118.877Z" fill="url(#paint19_linear_220_41)"/>
<defs>
<linearGradient id="paint0_linear_220_41" x1="114.218" y1="69.3316" x2="102.074" y2="138.43" gradientUnits="userSpaceOnUse">
<stop stop-color="white"/>
<stop offset="1" stop-color="#D100D1"/>
</linearGradient>
<linearGradient id="paint1_linear_220_41" x1="93.4809" y1="112.983" x2="128.051" y2="70.9117" gradientUnits="userSpaceOnUse">
<stop stop-color="white"/>
<stop offset="1" stop-color="#D100D1"/>
</linearGradient>
<linearGradient id="paint2_linear_220_41" x1="105.617" y1="58.0425" x2="104" y2="71.7329" gradientUnits="userSpaceOnUse">
<stop stop-color="white"/>
<stop offset="1" stop-color="#D100D1"/>
</linearGradient>
<linearGradient id="paint3_linear_220_41" x1="92.8109" y1="52.8467" x2="90.1833" y2="76.5064" gradientUnits="userSpaceOnUse">
<stop stop-color="white"/>
<stop offset="1" stop-color="#D100D1"/>
</linearGradient>
<linearGradient id="paint4_linear_220_41" x1="103.596" y1="51.2388" x2="75.4687" y2="127.257" gradientUnits="userSpaceOnUse">
<stop stop-color="white"/>
<stop offset="1" stop-color="#D100D1"/>
</linearGradient>
<linearGradient id="paint5_linear_220_41" x1="78.5012" y1="53.0005" x2="78.5012" y2="75.9792" gradientUnits="userSpaceOnUse">
<stop stop-color="white"/>
<stop offset="1" stop-color="#D100D1"/>
</linearGradient>
<linearGradient id="paint6_linear_220_41" x1="88.9716" y1="71.5923" x2="88.9716" y2="118.883" gradientUnits="userSpaceOnUse">
<stop stop-color="white"/>
<stop offset="1" stop-color="#D100D1"/>
</linearGradient>
<linearGradient id="paint7_linear_220_41" x1="100.117" y1="52.8132" x2="99.9797" y2="58.6121" gradientUnits="userSpaceOnUse">
<stop stop-color="white"/>
<stop offset="1" stop-color="#D100D1"/>
</linearGradient>
<linearGradient id="paint8_linear_220_41" x1="121.384" y1="58.4394" x2="117.176" y2="86.3654" gradientUnits="userSpaceOnUse">
<stop stop-color="#FFCE6F"/>
<stop offset="1" stop-color="#D100D1"/>
</linearGradient>
<linearGradient id="paint9_linear_220_41" x1="111.057" y1="39.6819" x2="111.057" y2="71.6221" gradientUnits="userSpaceOnUse">
<stop stop-color="white"/>
<stop offset="1" stop-color="#FFF4E1"/>
</linearGradient>
<linearGradient id="paint10_linear_220_41" x1="42.8753" y1="69.3247" x2="54.9608" y2="138.45" gradientUnits="userSpaceOnUse">
<stop stop-color="white"/>
<stop offset="1" stop-color="#D100D1"/>
</linearGradient>
<linearGradient id="paint11_linear_220_41" x1="63.518" y1="112.976" x2="28.9482" y2="70.9046" gradientUnits="userSpaceOnUse">
<stop stop-color="white"/>
<stop offset="1" stop-color="#D100D1"/>
</linearGradient>
<linearGradient id="paint12_linear_220_41" x1="51.3817" y1="58.0359" x2="52.9988" y2="71.7262" gradientUnits="userSpaceOnUse">
<stop stop-color="white"/>
<stop offset="1" stop-color="#D100D1"/>
</linearGradient>
<linearGradient id="paint13_linear_220_41" x1="64.1884" y1="52.8396" x2="66.816" y2="76.4992" gradientUnits="userSpaceOnUse">
<stop stop-color="white"/>
<stop offset="1" stop-color="#D100D1"/>
</linearGradient>
<linearGradient id="paint14_linear_220_41" x1="53.4039" y1="51.2321" x2="81.5309" y2="127.25" gradientUnits="userSpaceOnUse">
<stop stop-color="white"/>
<stop offset="1" stop-color="#D100D1"/>
</linearGradient>
<linearGradient id="paint15_linear_220_41" x1="68.0277" y1="71.586" x2="68.0277" y2="118.877" gradientUnits="userSpaceOnUse">
<stop stop-color="white"/>
<stop offset="1" stop-color="#D100D1"/>
</linearGradient>
<linearGradient id="paint16_linear_220_41" x1="56.9496" y1="52.8167" x2="57.0855" y2="58.605" gradientUnits="userSpaceOnUse">
<stop stop-color="white"/>
<stop offset="1" stop-color="#D100D1"/>
</linearGradient>
<linearGradient id="paint17_linear_220_41" x1="35.6149" y1="58.4326" x2="39.8227" y2="86.3587" gradientUnits="userSpaceOnUse">
<stop stop-color="#FFCE6F"/>
<stop offset="1" stop-color="#D100D1"/>
</linearGradient>
<linearGradient id="paint18_linear_220_41" x1="45.9428" y1="39.6748" x2="45.9428" y2="71.615" gradientUnits="userSpaceOnUse">
<stop stop-color="white"/>
<stop offset="1" stop-color="#FFF4E1"/>
</linearGradient>
<linearGradient id="paint19_linear_220_41" x1="76.2758" y1="109.629" x2="59.1482" y2="145.824" gradientUnits="userSpaceOnUse">
<stop stop-color="white"/>
<stop offset="1" stop-color="#D100D1"/>
</linearGradient>
</defs>
</svg>
